# xmcd
#
# Track frame offsets: 
#        150
#        25296
#        40023
#        63901
#        84217
#        102645
#        116831
#        134542
#        154510
#        183327
#        207142
#
# Disc length: 3042 seconds
#
# Revision: 0
# Processed by: cddbd v1.5.2PL0 Copyright (c) Steve Scherf et al.
# Submitted via: ExactAudioCopy v1.3
#
DISCID=8d0be00b
DTITLE=Pack Mule Project - Depth Of Field
DYEAR=2019
DGENRE=Chicago Blues
TTITLE0=Change One Thing
TTITLE1=Let Me Explain
TTITLE2=Just The Way It Goes Sometimes
TTITLE3=Close To You
TTITLE4=Flying By The Seat Of My Pants
TTITLE5=Walking By Myself
TTITLE6=Walking The Dog
TTITLE7=Checking On My Baby
TTITLE8=Bo Desert Raga
TTITLE9=Rest When I'm Dead
TTITLE10=Change One Thing (Slight Return)
EXTD=
EXTT0=
EXTT1=
EXTT2=
EXTT3=
EXTT4=
EXTT5=
EXTT6=
EXTT7=
EXTT8=
EXTT9=
EXTT10=
PLAYORDER=
